<mxfile host="app.diagrams.net" modified="2024-07-17T15:12:24.834Z" agent="Mozilla/5.0 (Windows NT 10.0; Win64; x64) AppleWebKit/537.36 (KHTML, like Gecko) Chrome/126.0.0.0 Safari/537.36" etag="B_N9Hw-A1a4OPquF0gnl" version="24.6.4" type="device">
  <diagram name="Page-1" id="lQcwPYmhqAR5R1_7IIDk">
    <mxGraphModel dx="2520" dy="1163" grid="0" gridSize="10" guides="1" tooltips="1" connect="1" arrows="1" fold="1" page="0" pageScale="1" pageWidth="850" pageHeight="1100" math="0" shadow="0">
      <root>
        <mxCell id="0" />
        <mxCell id="1" parent="0" />
        <mxCell id="06bZLg3yr9zf978Owaq6-1" value="" style="whiteSpace=wrap;html=1;aspect=fixed;" vertex="1" parent="1">
          <mxGeometry x="-300" y="86.67999999999999" width="260" height="260" as="geometry" />
        </mxCell>
        <mxCell id="06bZLg3yr9zf978Owaq6-2" value="etcd" style="shape=cylinder3;whiteSpace=wrap;html=1;boundedLbl=1;backgroundOutline=1;size=15;" vertex="1" parent="1">
          <mxGeometry x="-296" y="176.68" width="60" height="80" as="geometry" />
        </mxCell>
        <mxCell id="06bZLg3yr9zf978Owaq6-4" value="Controler manager" style="rounded=0;whiteSpace=wrap;html=1;" vertex="1" parent="1">
          <mxGeometry x="-167.5" y="287" width="123" height="47.32" as="geometry" />
        </mxCell>
        <mxCell id="06bZLg3yr9zf978Owaq6-84" style="edgeStyle=none;curved=1;rounded=0;orthogonalLoop=1;jettySize=auto;html=1;exitX=0.5;exitY=0;exitDx=0;exitDy=0;fontSize=12;startSize=8;endSize=8;" edge="1" parent="1" source="06bZLg3yr9zf978Owaq6-5" target="06bZLg3yr9zf978Owaq6-6">
          <mxGeometry relative="1" as="geometry" />
        </mxCell>
        <mxCell id="06bZLg3yr9zf978Owaq6-85" style="edgeStyle=none;curved=1;rounded=0;orthogonalLoop=1;jettySize=auto;html=1;exitX=0.5;exitY=1;exitDx=0;exitDy=0;entryX=0.5;entryY=0;entryDx=0;entryDy=0;fontSize=12;startSize=8;endSize=8;" edge="1" parent="1" source="06bZLg3yr9zf978Owaq6-5" target="06bZLg3yr9zf978Owaq6-4">
          <mxGeometry relative="1" as="geometry" />
        </mxCell>
        <mxCell id="06bZLg3yr9zf978Owaq6-5" value="API Server" style="rounded=0;whiteSpace=wrap;html=1;" vertex="1" parent="1">
          <mxGeometry x="-170.5" y="211.5" width="129" height="41" as="geometry" />
        </mxCell>
        <mxCell id="06bZLg3yr9zf978Owaq6-6" value="scheduler" style="rounded=0;whiteSpace=wrap;html=1;" vertex="1" parent="1">
          <mxGeometry x="-169" y="128" width="126" height="33" as="geometry" />
        </mxCell>
        <mxCell id="06bZLg3yr9zf978Owaq6-14" value="" style="endArrow=classic;startArrow=classic;html=1;rounded=0;fontSize=12;startSize=8;endSize=8;curved=1;entryX=1;entryY=0;entryDx=0;entryDy=52.5;entryPerimeter=0;exitX=0;exitY=0.5;exitDx=0;exitDy=0;" edge="1" parent="1" source="06bZLg3yr9zf978Owaq6-5" target="06bZLg3yr9zf978Owaq6-2">
          <mxGeometry width="50" height="50" relative="1" as="geometry">
            <mxPoint x="-165" y="253.57" as="sourcePoint" />
            <mxPoint x="-295" y="217.07" as="targetPoint" />
          </mxGeometry>
        </mxCell>
        <mxCell id="06bZLg3yr9zf978Owaq6-19" value="" style="whiteSpace=wrap;html=1;aspect=fixed;" vertex="1" parent="1">
          <mxGeometry x="181" y="272" width="200" height="200" as="geometry" />
        </mxCell>
        <mxCell id="06bZLg3yr9zf978Owaq6-20" value="" style="whiteSpace=wrap;html=1;aspect=fixed;" vertex="1" parent="1">
          <mxGeometry x="181" y="-10" width="191" height="191" as="geometry" />
        </mxCell>
        <mxCell id="06bZLg3yr9zf978Owaq6-23" value="&amp;nbsp; &amp;nbsp; &amp;nbsp; &amp;nbsp; &amp;nbsp; &amp;nbsp; &amp;nbsp; &amp;nbsp; &amp;nbsp; &amp;nbsp; &amp;nbsp; &amp;nbsp; &amp;nbsp; &amp;nbsp; &amp;nbsp; Control Manager/Master Node" style="text;html=1;align=center;verticalAlign=middle;resizable=0;points=[];autosize=1;strokeColor=none;fillColor=none;fontSize=16;" vertex="1" parent="1">
          <mxGeometry x="-404" y="365" width="367" height="31" as="geometry" />
        </mxCell>
        <mxCell id="06bZLg3yr9zf978Owaq6-33" value="Worker Node 1" style="text;html=1;align=center;verticalAlign=middle;resizable=0;points=[];autosize=1;strokeColor=none;fillColor=none;fontSize=16;" vertex="1" parent="1">
          <mxGeometry x="214" y="179" width="125" height="31" as="geometry" />
        </mxCell>
        <mxCell id="06bZLg3yr9zf978Owaq6-34" value="Worker Node 2" style="text;html=1;align=center;verticalAlign=middle;resizable=0;points=[];autosize=1;strokeColor=none;fillColor=none;fontSize=16;" vertex="1" parent="1">
          <mxGeometry x="210.25" y="475" width="125" height="31" as="geometry" />
        </mxCell>
        <mxCell id="06bZLg3yr9zf978Owaq6-35" value="Kubelet" style="rounded=1;whiteSpace=wrap;html=1;" vertex="1" parent="1">
          <mxGeometry x="208" y="3" width="134" height="19" as="geometry" />
        </mxCell>
        <mxCell id="06bZLg3yr9zf978Owaq6-36" value="Kubeproxy" style="rounded=1;whiteSpace=wrap;html=1;arcSize=21;" vertex="1" parent="1">
          <mxGeometry x="236" y="39" width="73.5" height="22" as="geometry" />
        </mxCell>
        <mxCell id="06bZLg3yr9zf978Owaq6-37" value="" style="whiteSpace=wrap;html=1;aspect=fixed;" vertex="1" parent="1">
          <mxGeometry x="200" y="77" width="66" height="66" as="geometry" />
        </mxCell>
        <mxCell id="06bZLg3yr9zf978Owaq6-38" value="" style="whiteSpace=wrap;html=1;aspect=fixed;" vertex="1" parent="1">
          <mxGeometry x="283" y="77" width="66" height="66" as="geometry" />
        </mxCell>
        <mxCell id="06bZLg3yr9zf978Owaq6-39" value="Kubelet" style="rounded=1;whiteSpace=wrap;html=1;" vertex="1" parent="1">
          <mxGeometry x="211" y="283.68" width="134" height="19" as="geometry" />
        </mxCell>
        <mxCell id="06bZLg3yr9zf978Owaq6-40" value="Kubeproxy" style="rounded=1;whiteSpace=wrap;html=1;arcSize=21;" vertex="1" parent="1">
          <mxGeometry x="238" y="310.68" width="73.5" height="22" as="geometry" />
        </mxCell>
        <mxCell id="06bZLg3yr9zf978Owaq6-42" value="" style="whiteSpace=wrap;html=1;aspect=fixed;" vertex="1" parent="1">
          <mxGeometry x="294" y="343.68" width="80" height="80" as="geometry" />
        </mxCell>
        <mxCell id="06bZLg3yr9zf978Owaq6-43" value="" style="whiteSpace=wrap;html=1;aspect=fixed;" vertex="1" parent="1">
          <mxGeometry x="199" y="346.68" width="74" height="74" as="geometry" />
        </mxCell>
        <mxCell id="06bZLg3yr9zf978Owaq6-45" value="Pod 1" style="text;html=1;align=center;verticalAlign=middle;whiteSpace=wrap;rounded=0;fontSize=16;" vertex="1" parent="1">
          <mxGeometry x="203" y="141" width="60" height="30" as="geometry" />
        </mxCell>
        <mxCell id="06bZLg3yr9zf978Owaq6-46" value="Pod 2" style="text;html=1;align=center;verticalAlign=middle;whiteSpace=wrap;rounded=0;fontSize=16;" vertex="1" parent="1">
          <mxGeometry x="286" y="141" width="60" height="30" as="geometry" />
        </mxCell>
        <mxCell id="06bZLg3yr9zf978Owaq6-47" value="pod1" style="text;html=1;align=center;verticalAlign=middle;whiteSpace=wrap;rounded=0;fontSize=16;" vertex="1" parent="1">
          <mxGeometry x="202" y="420.68" width="60" height="30" as="geometry" />
        </mxCell>
        <mxCell id="06bZLg3yr9zf978Owaq6-49" value="pod 2" style="text;html=1;align=center;verticalAlign=middle;whiteSpace=wrap;rounded=0;fontSize=16;" vertex="1" parent="1">
          <mxGeometry x="296" y="420.68" width="60" height="30" as="geometry" />
        </mxCell>
        <mxCell id="06bZLg3yr9zf978Owaq6-51" value="" style="aspect=fixed;sketch=0;html=1;dashed=0;whitespace=wrap;verticalLabelPosition=bottom;verticalAlign=top;fillColor=#2875E2;strokeColor=#ffffff;points=[[0.005,0.63,0],[0.1,0.2,0],[0.9,0.2,0],[0.5,0,0],[0.995,0.63,0],[0.72,0.99,0],[0.5,1,0],[0.28,0.99,0]];shape=mxgraph.kubernetes.icon2;kubernetesLabel=1;prIcon=pod" vertex="1" parent="1">
          <mxGeometry x="206" y="83" width="50" height="48" as="geometry" />
        </mxCell>
        <mxCell id="06bZLg3yr9zf978Owaq6-52" value="" style="aspect=fixed;sketch=0;html=1;dashed=0;whitespace=wrap;verticalLabelPosition=bottom;verticalAlign=top;fillColor=#2875E2;strokeColor=#ffffff;points=[[0.005,0.63,0],[0.1,0.2,0],[0.9,0.2,0],[0.5,0,0],[0.995,0.63,0],[0.72,0.99,0],[0.5,1,0],[0.28,0.99,0]];shape=mxgraph.kubernetes.icon2;kubernetesLabel=1;prIcon=pod" vertex="1" parent="1">
          <mxGeometry x="289.92" y="85" width="52.08" height="50" as="geometry" />
        </mxCell>
        <mxCell id="06bZLg3yr9zf978Owaq6-53" value="" style="aspect=fixed;sketch=0;html=1;dashed=0;whitespace=wrap;verticalLabelPosition=bottom;verticalAlign=top;fillColor=#2875E2;strokeColor=#ffffff;points=[[0.005,0.63,0],[0.1,0.2,0],[0.9,0.2,0],[0.5,0,0],[0.995,0.63,0],[0.72,0.99,0],[0.5,1,0],[0.28,0.99,0]];shape=mxgraph.kubernetes.icon2;kubernetesLabel=1;prIcon=pod" vertex="1" parent="1">
          <mxGeometry x="306" y="352.68" width="50" height="48" as="geometry" />
        </mxCell>
        <mxCell id="06bZLg3yr9zf978Owaq6-54" value="" style="aspect=fixed;sketch=0;html=1;dashed=0;whitespace=wrap;verticalLabelPosition=bottom;verticalAlign=top;fillColor=#2875E2;strokeColor=#ffffff;points=[[0.005,0.63,0],[0.1,0.2,0],[0.9,0.2,0],[0.5,0,0],[0.995,0.63,0],[0.72,0.99,0],[0.5,1,0],[0.28,0.99,0]];shape=mxgraph.kubernetes.icon2;kubernetesLabel=1;prIcon=pod" vertex="1" parent="1">
          <mxGeometry x="209" y="359.68" width="50" height="48" as="geometry" />
        </mxCell>
        <mxCell id="06bZLg3yr9zf978Owaq6-55" value="" style="aspect=fixed;sketch=0;html=1;dashed=0;whitespace=wrap;verticalLabelPosition=bottom;verticalAlign=top;fillColor=#2875E2;strokeColor=#ffffff;points=[[0.005,0.63,0],[0.1,0.2,0],[0.9,0.2,0],[0.5,0,0],[0.995,0.63,0],[0.72,0.99,0],[0.5,1,0],[0.28,0.99,0]];shape=mxgraph.kubernetes.icon2;prIcon=node" vertex="1" parent="1">
          <mxGeometry x="344.5" y="151.5" width="38.02" height="36.5" as="geometry" />
        </mxCell>
        <mxCell id="06bZLg3yr9zf978Owaq6-56" value="" style="aspect=fixed;sketch=0;html=1;dashed=0;whitespace=wrap;verticalLabelPosition=bottom;verticalAlign=top;fillColor=#2875E2;strokeColor=#ffffff;points=[[0.005,0.63,0],[0.1,0.2,0],[0.9,0.2,0],[0.5,0,0],[0.995,0.63,0],[0.72,0.99,0],[0.5,1,0],[0.28,0.99,0]];shape=mxgraph.kubernetes.icon2;prIcon=node" vertex="1" parent="1">
          <mxGeometry x="349" y="440.68" width="38.02" height="36.5" as="geometry" />
        </mxCell>
        <mxCell id="06bZLg3yr9zf978Owaq6-57" value="" style="aspect=fixed;sketch=0;html=1;dashed=0;whitespace=wrap;verticalLabelPosition=bottom;verticalAlign=top;fillColor=#2875E2;strokeColor=#ffffff;points=[[0.005,0.63,0],[0.1,0.2,0],[0.9,0.2,0],[0.5,0,0],[0.995,0.63,0],[0.72,0.99,0],[0.5,1,0],[0.28,0.99,0]];shape=mxgraph.kubernetes.icon2;kubernetesLabel=1;prIcon=control_plane" vertex="1" parent="1">
          <mxGeometry x="-333" y="334.32" width="58" height="55.68" as="geometry" />
        </mxCell>
        <mxCell id="06bZLg3yr9zf978Owaq6-58" value="" style="aspect=fixed;sketch=0;html=1;dashed=0;whitespace=wrap;verticalLabelPosition=bottom;verticalAlign=top;fillColor=#2875E2;strokeColor=#ffffff;points=[[0.005,0.63,0],[0.1,0.2,0],[0.9,0.2,0],[0.5,0,0],[0.995,0.63,0],[0.72,0.99,0],[0.5,1,0],[0.28,0.99,0]];shape=mxgraph.kubernetes.icon2;kubernetesLabel=1;prIcon=etcd" vertex="1" parent="1">
          <mxGeometry x="-291.99999999999994" y="211.5" width="39.58" height="38" as="geometry" />
        </mxCell>
        <mxCell id="06bZLg3yr9zf978Owaq6-59" value="" style="aspect=fixed;sketch=0;html=1;dashed=0;whitespace=wrap;verticalLabelPosition=bottom;verticalAlign=top;fillColor=#2875E2;strokeColor=#ffffff;points=[[0.005,0.63,0],[0.1,0.2,0],[0.9,0.2,0],[0.5,0,0],[0.995,0.63,0],[0.72,0.99,0],[0.5,1,0],[0.28,0.99,0]];shape=mxgraph.kubernetes.icon2;kubernetesLabel=1;prIcon=user" vertex="1" parent="1">
          <mxGeometry x="2" y="-82" width="69.79" height="67" as="geometry" />
        </mxCell>
        <mxCell id="06bZLg3yr9zf978Owaq6-63" value="Tet" style="text;html=1;align=center;verticalAlign=middle;resizable=0;points=[];autosize=1;strokeColor=none;fillColor=none;fontSize=16;" vertex="1" parent="1">
          <mxGeometry x="80.5" y="50.5" width="39" height="31" as="geometry" />
        </mxCell>
        <mxCell id="06bZLg3yr9zf978Owaq6-79" value="" style="edgeStyle=elbowEdgeStyle;elbow=horizontal;endArrow=classic;html=1;curved=0;rounded=0;endSize=8;startSize=8;fontSize=12;exitX=0.5;exitY=1;exitDx=0;exitDy=0;exitPerimeter=0;entryX=1.014;entryY=0.554;entryDx=0;entryDy=0;entryPerimeter=0;" edge="1" parent="1" source="06bZLg3yr9zf978Owaq6-59" target="06bZLg3yr9zf978Owaq6-1">
          <mxGeometry width="50" height="50" relative="1" as="geometry">
            <mxPoint x="41" y="256" as="sourcePoint" />
            <mxPoint x="-33" y="252" as="targetPoint" />
            <Array as="points">
              <mxPoint x="37" y="7" />
              <mxPoint x="10" y="245" />
              <mxPoint x="10" y="223" />
              <mxPoint x="41" y="132" />
            </Array>
          </mxGeometry>
        </mxCell>
        <mxCell id="06bZLg3yr9zf978Owaq6-80" value="" style="edgeStyle=elbowEdgeStyle;elbow=horizontal;endArrow=classic;html=1;curved=0;rounded=0;endSize=8;startSize=8;fontSize=12;entryX=0;entryY=0.5;entryDx=0;entryDy=0;" edge="1" parent="1" target="06bZLg3yr9zf978Owaq6-20">
          <mxGeometry width="50" height="50" relative="1" as="geometry">
            <mxPoint x="-42" y="244" as="sourcePoint" />
            <mxPoint x="13" y="203" as="targetPoint" />
            <Array as="points">
              <mxPoint x="68" y="239" />
            </Array>
          </mxGeometry>
        </mxCell>
        <mxCell id="06bZLg3yr9zf978Owaq6-81" value="" style="edgeStyle=elbowEdgeStyle;elbow=horizontal;endArrow=classic;html=1;curved=0;rounded=0;endSize=8;startSize=8;fontSize=12;exitX=1;exitY=1;exitDx=0;exitDy=0;entryX=-0.017;entryY=0.562;entryDx=0;entryDy=0;entryPerimeter=0;" edge="1" parent="1" source="06bZLg3yr9zf978Owaq6-5" target="06bZLg3yr9zf978Owaq6-19">
          <mxGeometry width="50" height="50" relative="1" as="geometry">
            <mxPoint x="55" y="311" as="sourcePoint" />
            <mxPoint x="105" y="261" as="targetPoint" />
            <Array as="points">
              <mxPoint x="66" y="323" />
            </Array>
          </mxGeometry>
        </mxCell>
      </root>
    </mxGraphModel>
  </diagram>
</mxfile>
